<svg xmlns="http://www.w3.org/2000/svg" viewBox="0 0 220 90" role="img" aria-label="Энергосбыт">
  <rect width="220" height="90" rx="12" fill="#fff"/>
  <g transform="translate(10 13)">
    <path d="M8 8h16v13c0 7 5 12 12 12h13v16H34c-15 0-26-11-26-26z" fill="#59636b"/>
    <path d="M26 0h16v13c0 6 5 11 11 11h12v16H50c-14 0-24-10-24-24z" fill="#ff4b21"/>
    <path d="M48 8h16v12c0 6 5 11 11 11h12v16H72c-14 0-24-10-24-24z" fill="#59636b"/>
    <path d="M67 0h16v12c0 6 5 11 11 11h12v16H91c-14 0-24-10-24-24z" fill="#ff4b21"/>
  </g>
  <text x="15" y="78" font-family="Arial,Helvetica,sans-serif" font-size="24" font-weight="700" letter-spacing=".2"><tspan fill="#ff4b21">ЭНЕРГО</tspan><tspan fill="#59636b">СБЫТ</tspan></text>
</svg>