<svg xmlns="http://www.w3.org/2000/svg" viewBox="0 0 96 96" role="img" aria-label="Домофон">
  <rect x="10" y="12" width="76" height="72" rx="12" fill="#fff" stroke="#0b5ea8" stroke-width="6"/>
  <rect x="18" y="20" width="28" height="56" rx="10" fill="#eef7ff" stroke="#0b5ea8" stroke-width="5"/>
  <path d="M27 25c8-3 10 0 10 7v31c0 7-2 10-10 7-4-2-5-5-5-10V35c0-5 1-8 5-10z" fill="#0b5ea8"/>
  <circle cx="68" cy="23" r="5" fill="#0b5ea8"/><circle cx="68" cy="23" r="2" fill="#bfe2ff"/>
  <rect x="51" y="31" width="28" height="20" rx="4" fill="#bfe2ff" stroke="#0b5ea8" stroke-width="4"/>
  <circle cx="65" cy="38" r="4" fill="#0b5ea8"/><path d="M59 47c1-6 11-6 12 0z" fill="#0b5ea8"/>
  <g fill="#0b5ea8"><rect x="52" y="58" width="7" height="7" rx="2"/><rect x="62" y="58" width="7" height="7" rx="2"/><rect x="72" y="58" width="7" height="7" rx="2"/><rect x="52" y="68" width="7" height="7" rx="2"/><rect x="62" y="68" width="7" height="7" rx="2"/><rect x="72" y="68" width="7" height="7" rx="2"/></g>
  <rect x="82" y="57" width="7" height="12" rx="2" fill="#1dbb34"/><rect x="82" y="71" width="7" height="12" rx="2" fill="#ff2c2c"/>
</svg>